<?xml version="1.0" encoding="iso-8859-1"?>
<!-- Generator: Adobe Illustrator 16.0.0, SVG Export Plug-In . SVG Version: 6.00 Build 0)  -->
<!DOCTYPE svg PUBLIC "-//W3C//DTD SVG 1.1//EN" "http://www.w3.org/Graphics/SVG/1.1/DTD/svg11.dtd">
<svg version="1.1" id="Capa_1" xmlns="http://www.w3.org/2000/svg" xmlns:xlink="http://www.w3.org/1999/xlink" x="0px" y="0px"
	 width="27.083px" height="27.083px" viewBox="0 0 27.083 27.083" style="enable-background:new 0 0 27.083 27.083;"
	 xml:space="preserve">
<g>
	<path style="fill:#009688;" d="M27.083,16.66c0,0-0.478-1.035-1.731-1.035c-3.671,0-2.364,4.167-5.556,4.167
		c-0.906,0-3.46,0-6.255,0v-2.084h7.292c0,0,2.083-2.083,2.083-6.25c0-4.167-2.083-7.292-2.083-7.292h-7.292V2.104
		c3.715,0.14,3.253,1.021,5.208,1.021c2.123,0,4.11-2.083,4.11-2.083s-0.912,0.701-3.054,0.701c-2.435,0-2.552-1.588-6.718-1.729
		C13.065,0.01,13.044,0,13.021,0c-0.02,0-0.036,0.008-0.054,0.01C12.812,0.006,12.666,0,12.5,0v0.521v1.562v2.083H5.208
		c0,0,1.581,2.914,1.042,7.292c-0.509,4.136-2.586,6.25-2.586,6.25H12.5v2.084c-3.327,0-6.749,0-7.992,0
		c-2.431,0-2.425-2.084-2.425-2.084S0,19.575,0,22.396c0,3.125,2.474,4.688,4.688,4.688c2.083,0,15.104,0,17.187,0
		c2.084,0,5.209-1.041,5.209-4.166c0-2.086-2.084-2.859-2.084-4.688C25,17.42,25.454,16.66,27.083,16.66z"/>
</g>
</svg>
